# xmcd CD database file
#
# Track frame offsets:
#	150
#	22727
#	35435
#	58042
#	70845
#	89147
#	117865
#	137130
#	157035
#	179645
#	199542
#	211497
#	239725
#	264435
#	288725
#	319205
#
# Disc length: 4552 seconds
#
# Revision: 0
# Processed by: cddbd v1.4PL0 Copyright (c) Steve Scherf et al.
# Submitted via: CDex 1.50
#
DISCID=f811c610
DTITLE=Johnny Griffin - Griff'n'bags
DYEAR=1968
DGENRE=Jazz
TTITLE0=Gamal Sady'n'em
TTITLE1=Lonely Girl
TTITLE2=Gyson's Bag
TTITLE3=The Turk's Bolero
TTITLE4=The Girl And The Turk
TTITLE5=Muvaffaks's Pad
TTITLE6=Just Friends
TTITLE7=I'm A Fool To Want You
TTITLE8=Blues For K
TTITLE9=Like Someone In Love
TTITLE10=Just You, Just Me
TTITLE11=Foot Patting
TTITLE12=Please Send Me Someone To Love
TTITLE13=Deep Eight
TTITLE14=The Jamfs Are Coming
TTITLE15=Lady Heavy Bottom's Waltz
EXTD=YEAR: 1968
EXTT0=
EXTT1=
EXTT2=
EXTT3=
EXTT4=
EXTT5=
EXTT6=
EXTT7=
EXTT8=
EXTT9=
EXTT10=
EXTT11=
EXTT12=
EXTT13=
EXTT14=
EXTT15=
PLAYORDER=
